<svg width="516" height="118" xmlns="http://www.w3.org/2000/svg" fill="#aa2e25" stroke="gray" stroke-width="1" version="1.2">
 <g>
  <title>Layer 1</title>
  <path id="svg_1" d="m75.90939,11.24733c28.3,8.4 45.7,38 39,66.4c-3.1,12.8 -14.3,28.9 -24.1,34.3l-3.1,1.7l-1.2,-3.8c-0.7,-2.3 -3.1,-5.8 -5.8,-8.6c-4.1,-3.9 -4.6,-4.8 -3.5,-6.3c3.3,-4.5 5.4,-10.6 4.8,-14c-0.7,-4.8 -5.3,-10.2 -10.9,-13.1l-4.7,-2.3l0,-15.5c0,-8.5 0.4,-16.3 1,-17.3c0.6,-1.2 0.6,-2.9 -0.2,-5c-0.8,-2.5 -0.8,-3.4 0.2,-4c0.9,-0.6 0.9,-1.2 0,-2.9c-2.2,-4.3 -9.2,-5 -13.2,-1.4c-2.1,1.9 -2.4,6.9 -0.5,7.6c0.9,0.4 0.9,0.8 -0.2,1.6c-1.2,0.8 -1.3,1.4 -0.3,3.6c0.8,1.6 1.2,8.2 1.2,17.8l0,15.3l-5.2,2.5c-10.4,4.9 -14.1,15.3 -8.5,23.8c3.4,5.1 3.4,6.2 -0.2,8.9c-1.6,1.2 -4.1,4.6 -5.6,7.6l-2.7,5.6l-4.2,-2.9c-8.8,-6.1 -15.4,-14.6 -20.3,-26.2c-2.4,-5.8 -2.7,-7.6 -2.8,-18.9c0,-9.6 0.4,-13.7 1.8,-17.7c7.3,-20.8 25,-35.6 46.2,-38.7c5,-0.7 17.7,0.3 23,1.9z"/>
  <path id="svg_2" d="m149.50939,14.74733c0.5,0 0.9,19.5 0.9,48c0,28.1 -0.4,48 -0.9,48c-1.1,0 -1.7,-38.2 -1.3,-72.3c0.2,-13.5 0.8,-23.7 1.3,-23.7z"/>
  <path id="svg_3" d="m203.90939,51.34733c3.5,3.2 3.4,6.4 -0.3,6.4c-1.6,0 -3.7,-0.9 -4.7,-2c-2.8,-3.1 -9.8,-2.8 -12.4,0.6c-2.8,3.6 -2.7,9.1 0.1,12.1c2.5,2.6 9.8,3.2 11.7,1c1.3,-1.6 0.5,-2.7 -2.1,-2.7c-1.5,0 -1.9,-0.6 -1.6,-2.8c0.3,-2.6 0.5,-2.7 6.3,-2.7l6,0l0.3,3.6c0.6,7.4 -7.8,12.9 -17.7,11.5c-9.2,-1.3 -14.7,-9.2 -12.2,-17.6c1.6,-5.4 4.9,-9 9.1,-10c7.6,-1.8 13.8,-0.9 17.5,2.6z"/>
  <path id="svg_4" d="m387.90939,47.84733c5.7,0 10.8,2 12.2,4.8c0.6,1.4 1,2.9 0.7,3.3c-0.9,1.4 -6.1,0.9 -7.4,-0.7c-1.7,-2.1 -9.9,-2 -10.7,0.1c-0.9,2.3 0.6,3.2 7.5,4.3c7.9,1.3 12.2,4.1 12.2,8.1c0,8.8 -19.5,12.4 -26.3,4.9c-1.6,-1.7 -2.6,-3.6 -2.4,-4.2c0.6,-2.1 4.6,-1.9 7.3,0.2c3.3,2.6 10.5,2.9 12.4,0.6c1.9,-2.3 0.2,-3.5 -6.1,-4.4c-3,-0.4 -6.9,-1.5 -8.6,-2.4c-6.2,-3.3 -5.2,-11 1.7,-13.4c1.9,-0.7 5.3,-1.2 7.5,-1.2z"/>
  <path id="svg_5" d="m471.30939,50.54733c5.4,3.9 7.1,12.6 3.7,19c-3.8,7.4 -17.7,9.4 -25.1,3.7c-8.5,-6.4 -6.1,-21.4 3.8,-24.5c4.8,-1.4 14.6,-0.5 17.6,1.8zm-10.2,3.2c-4.8,0 -5.9,0.6 -7.6,3.7c-1.7,3.3 -1.3,7.7 1,10.7c1.6,2 2.9,2.6 6,2.6c7.8,0 11.7,-8.2 6.8,-14.4c-1.6,-2.1 -2.9,-2.6 -6.2,-2.6z" fill-rule="evenodd"/>
  <path id="svg_6" d="m218.40939,48.74733l3,0l0,8.4c0,10.1 1.9,13.6 7.6,13.6c5.9,0 7.4,-2.5 7.4,-13l0,-9l3.5,0l3.5,0l0,9.6c0,9.8 -0.8,12.6 -4.4,15.5c-4.9,4.1 -15.8,3.5 -20.9,-1.1c-2.9,-2.6 -3.1,-3.2 -3.5,-11.8c-0.2,-5 -0.2,-9.8 0.1,-10.7c0.4,-0.9 1.9,-1.5 3.7,-1.5z"/>
  <path id="svg_7" d="m250.40939,48.64733l8.8,0.3c8.6,0.3 8.7,0.3 9,3c0.3,2.3 -0.1,2.7 -2.5,3c-2.8,0.3 -2.8,0.3 -2.8,7.8c0,7.5 0,7.5 2.8,7.8c2.4,0.3 2.8,0.7 2.5,3c-0.3,2.7 -0.4,2.7 -8.7,3c-4.6,0.2 -8.8,-0.1 -9.4,-0.7c-1.5,-1.5 0.2,-4.9 2.6,-5.3c2,-0.3 2.2,-0.8 2.2,-7.8c0,-7 -0.1,-7.5 -2.2,-7.8c-1.8,-0.3 -2.3,-1 -2.3,-3.3l0,-3z"/>
  <path id="svg_8" d="m272.40939,48.74733l13.4,0c7.4,0 13.7,0.4 14,0.8c0.3,0.5 0.2,1.8 -0.1,3c-0.4,1.8 -1.3,2.2 -4.8,2.2c-5.3,0 -5.5,0.4 -5.5,12.6l0,9.4l-3.5,0l-3.4,0l-0.3,-10.8l-0.3,-10.7l-4.7,-0.3c-4.6,-0.3 -4.8,-0.5 -4.8,-3.3l0,-2.9z"/>
  <path id="svg_9" d="m312.70939,48.74733l4.2,0c2.4,0 4.7,0.6 5.2,1.2c0.9,1.1 5.7,11.6 10.9,23.5l1.4,3.3l-3.8,0c-3.2,0 -4.1,-0.5 -5,-2.5c-1.1,-2.3 -1.6,-2.5 -8.7,-2.5c-7.1,0 -7.6,0.1 -8.5,2.5c-0.8,2 -1.6,2.5 -4.5,2.5c-1.9,0 -3.5,-0.4 -3.5,-1c0,-0.5 2.8,-6.8 6.1,-14l6.2,-13zm4.7,8c-1.1,0 -2.7,2.2 -3.9,5.2c-0.9,2.3 -0.7,2.7 1.4,3.2c1.3,0.3 3.2,0.3 4.3,-0.2c1.9,-0.7 1.9,-0.9 0.5,-4.5c-0.8,-2 -1.9,-3.7 -2.3,-3.7z" fill-rule="evenodd"/>
  <path id="svg_10" d="m360.60939,49.74733c4,1.2 7.8,5.1 7.8,8.2c0,1 -1.2,3 -2.6,4.3l-2.6,2.5l3.1,4.8c4,6.2 3.9,7.2 -0.4,7.2c-3,0 -3.9,-0.5 -5.3,-3.2c-2.6,-4.9 -4.9,-6.8 -8.1,-6.8c-5.2,0 -6.1,0.8 -6.1,5.6c0,4.4 0,4.4 -3.5,4.4l-3.5,0l0,-13.3c0,-7.4 0.3,-13.7 0.7,-14c1,-1.1 16.4,-0.8 20.5,0.3zm-13.5,5.7c-0.4,0.3 -0.7,1.7 -0.7,3c0,2.2 0.4,2.3 6.5,2.3c6.9,0 9,-1.5 6.5,-4.5c-1.3,-1.5 -11,-2.2 -12.3,-0.8z" fill-rule="evenodd"/>
  <path id="svg_11" d="m412.60939,48.94733c3.2,0.3 3.3,0.4 3.6,5.5l0.3,5.3l7,0l6.9,0l0,-5.5l0,-5.5l3.5,0l3.5,0l0,14l0,14l-3.4,0l-3.5,0l-0.3,-5.3l-0.3,-5.2l-6.7,-0.3l-6.7,-0.3l-0.3,5.3l-0.3,5.3l-3.5,0l-3.5,0l-0.3,-12.4c-0.1,-6.9 0,-13.1 0.3,-13.9c0.3,-0.8 1.7,-1.2 3.7,-1z"/>
  <path id="svg_12" d="m494.90939,48.94733c11.5,0.4 15.1,1.9 16.9,7.2c2.4,6.7 -3.1,11.8 -13.4,12.4l-6.9,0.4l-0.3,3.7c-0.3,3.4 -0.5,3.6 -3.8,3.6l-3.5,0l-0.3,-12.4c-0.1,-6.9 0,-13.1 0.3,-13.9c0.4,-1.1 2.6,-1.3 11,-1zm2.1,6l-5.6,-0.3l0,8.2l5.6,-0.3c6.4,-0.3 8.8,-2.3 6.8,-5.6c-0.8,-1.2 -2.7,-1.8 -6.8,-2z" fill-rule="evenodd"/>
 </g>
</svg>